<?xml version="1.0" encoding="UTF-8" standalone="no"?>
<!DOCTYPE svg PUBLIC "-//W3C//DTD SVG 1.1//EN"
 "http://www.w3.org/Graphics/SVG/1.1/DTD/svg11.dtd">
<!-- Generated by graphviz version 2.43.0 (0)
 -->
<!-- Title: G Pages: 1 -->
<svg width="2614pt" height="620pt"
 viewBox="0.00 0.00 2614.00 620.00" xmlns="http://www.w3.org/2000/svg" xmlns:xlink="http://www.w3.org/1999/xlink">
<g id="graph0" class="graph" transform="scale(1 1) rotate(0) translate(4 616)">
<title>G</title>
<polygon fill="white" stroke="transparent" points="-4,4 -4,-616 2610,-616 2610,4 -4,4"/>
<!-- cnf(id_50,plain,(lives(butler))). -->
<g id="node1" class="node">
<title>cnf(id_50,plain,(lives(butler))).</title>
<polygon fill="none" stroke="black" points="1302.5,-396 1069.5,-396 1069.5,-360 1302.5,-360 1302.5,-396"/>
<text text-anchor="middle" x="1186" y="-374.3" font-family="Times,serif" font-size="14.00">cnf(id_50,plain,(lives(butler))).</text>
</g>
<!-- cnf(id_161,plain,(~hates(butler,agatha) | richer(butler,agatha))). -->
<g id="node17" class="node">
<title>cnf(id_161,plain,(~hates(butler,agatha) | richer(butler,agatha))).</title>
<polygon fill="none" stroke="black" points="1483,-324 1009,-324 1009,-288 1483,-288 1483,-324"/>
<text text-anchor="middle" x="1246" y="-302.3" font-family="Times,serif" font-size="14.00">cnf(id_161,plain,(~hates(butler,agatha) | richer(butler,agatha))).</text>
</g>
<!-- cnf(id_50,plain,(lives(butler))).&#45;&gt;cnf(id_161,plain,(~hates(butler,agatha) | richer(butler,agatha))). -->
<g id="edge1" class="edge">
<title>cnf(id_50,plain,(lives(butler))).&#45;&gt;cnf(id_161,plain,(~hates(butler,agatha) | richer(butler,agatha))).</title>
<path fill="none" stroke="black" d="M1200.83,-359.7C1208.02,-351.3 1216.8,-341.07 1224.69,-331.86"/>
<polygon fill="black" stroke="black" points="1227.49,-333.97 1231.34,-324.1 1222.17,-329.42 1227.49,-333.97"/>
</g>
<!-- cnf(id_52,plain,(~killed(X0,X1) | ~richer(X0,X1))). -->
<g id="node2" class="node">
<title>cnf(id_52,plain,(~killed(X0,X1) | ~richer(X0,X1))).</title>
<polygon fill="none" stroke="black" points="1346.5,-180 975.5,-180 975.5,-144 1346.5,-144 1346.5,-180"/>
<text text-anchor="middle" x="1161" y="-158.3" font-family="Times,serif" font-size="14.00">cnf(id_52,plain,(~killed(X0,X1) | ~richer(X0,X1))).</text>
</g>
<!-- cnf(id_181,plain,(~killed(butler,agatha))). -->
<g id="node20" class="node">
<title>cnf(id_181,plain,(~killed(butler,agatha))).</title>
<polygon fill="none" stroke="black" points="963,-108 651,-108 651,-72 963,-72 963,-108"/>
<text text-anchor="middle" x="807" y="-86.3" font-family="Times,serif" font-size="14.00">cnf(id_181,plain,(~killed(butler,agatha))).</text>
</g>
<!-- cnf(id_52,plain,(~killed(X0,X1) | ~richer(X0,X1))).&#45;&gt;cnf(id_181,plain,(~killed(butler,agatha))). -->
<g id="edge2" class="edge">
<title>cnf(id_52,plain,(~killed(X0,X1) | ~richer(X0,X1))).&#45;&gt;cnf(id_181,plain,(~killed(butler,agatha))).</title>
<path fill="none" stroke="black" d="M1074.85,-143.97C1022.93,-133.7 956.7,-120.6 903.08,-110"/>
<polygon fill="black" stroke="black" points="903.71,-106.56 893.22,-108.05 902.36,-113.42 903.71,-106.56"/>
</g>
<!-- cnf(id_53,plain,(~hates(agatha,X0) | ~hates(charles,X0))). -->
<g id="node3" class="node">
<title>cnf(id_53,plain,(~hates(agatha,X0) | ~hates(charles,X0))).</title>
<polygon fill="none" stroke="black" points="430,-468 0,-468 0,-432 430,-432 430,-468"/>
<text text-anchor="middle" x="215" y="-446.3" font-family="Times,serif" font-size="14.00">cnf(id_53,plain,(~hates(agatha,X0) | ~hates(charles,X0))).</text>
</g>
<!-- cnf(id_91,plain,(~killed(charles,X0) | ~hates(agatha,X0))). -->
<g id="node11" class="node">
<title>cnf(id_91,plain,(~killed(charles,X0) | ~hates(agatha,X0))).</title>
<polygon fill="none" stroke="black" points="430,-396 0,-396 0,-360 430,-360 430,-396"/>
<text text-anchor="middle" x="215" y="-374.3" font-family="Times,serif" font-size="14.00">cnf(id_91,plain,(~killed(charles,X0) | ~hates(agatha,X0))).</text>
</g>
<!-- cnf(id_53,plain,(~hates(agatha,X0) | ~hates(charles,X0))).&#45;&gt;cnf(id_91,plain,(~killed(charles,X0) | ~hates(agatha,X0))). -->
<g id="edge3" class="edge">
<title>cnf(id_53,plain,(~hates(agatha,X0) | ~hates(charles,X0))).&#45;&gt;cnf(id_91,plain,(~killed(charles,X0) | ~hates(agatha,X0))).</title>
<path fill="none" stroke="black" d="M215,-431.7C215,-423.98 215,-414.71 215,-406.11"/>
<polygon fill="black" stroke="black" points="218.5,-406.1 215,-396.1 211.5,-406.1 218.5,-406.1"/>
</g>
<!-- cnf(id_54,plain,(~hates(X0,agatha) | ~hates(X0,butler) | ~hates(X0,charles))). -->
<g id="node4" class="node">
<title>cnf(id_54,plain,(~hates(X0,agatha) | ~hates(X0,butler) | ~hates(X0,charles))).</title>
<polygon fill="none" stroke="black" points="2180,-612 1608,-612 1608,-576 2180,-576 2180,-612"/>
<text text-anchor="middle" x="1894" y="-590.3" font-family="Times,serif" font-size="14.00">cnf(id_54,plain,(~hates(X0,agatha) | ~hates(X0,butler) | ~hates(X0,charles))).</text>
</g>
<!-- cnf(id_124,plain,(~hates(agatha,charles) | ~hates(butler,agatha) | ~hates(butler,butler))). -->
<g id="node14" class="node">
<title>cnf(id_124,plain,(~hates(agatha,charles) | ~hates(butler,agatha) | ~hates(butler,butler))).</title>
<polygon fill="none" stroke="black" points="2476.5,-540 1819.5,-540 1819.5,-504 2476.5,-504 2476.5,-540"/>
<text text-anchor="middle" x="2148" y="-518.3" font-family="Times,serif" font-size="14.00">cnf(id_124,plain,(~hates(agatha,charles) | ~hates(butler,agatha) | ~hates(butler,butler))).</text>
</g>
<!-- cnf(id_54,plain,(~hates(X0,agatha) | ~hates(X0,butler) | ~hates(X0,charles))).&#45;&gt;cnf(id_124,plain,(~hates(agatha,charles) | ~hates(butler,agatha) | ~hates(butler,butler))). -->
<g id="edge4" class="edge">
<title>cnf(id_54,plain,(~hates(X0,agatha) | ~hates(X0,butler) | ~hates(X0,charles))).&#45;&gt;cnf(id_124,plain,(~hates(agatha,charles) | ~hates(butler,agatha) | ~hates(butler,butler))).</title>
<path fill="none" stroke="black" d="M1955.81,-575.97C1992.07,-565.97 2038.06,-553.3 2075.96,-542.85"/>
<polygon fill="black" stroke="black" points="2077.2,-546.14 2085.91,-540.11 2075.34,-539.39 2077.2,-546.14"/>
</g>
<!-- cnf(id_55,plain,(hates(agatha,agatha))). -->
<g id="node5" class="node">
<title>cnf(id_55,plain,(hates(agatha,agatha))).</title>
<polygon fill="none" stroke="black" points="746,-396 448,-396 448,-360 746,-360 746,-396"/>
<text text-anchor="middle" x="597" y="-374.3" font-family="Times,serif" font-size="14.00">cnf(id_55,plain,(hates(agatha,agatha))).</text>
</g>
<!-- cnf(id_96,plain,(~killed(charles,agatha))). -->
<g id="node12" class="node">
<title>cnf(id_96,plain,(~killed(charles,agatha))).</title>
<polygon fill="none" stroke="black" points="371.5,-324 58.5,-324 58.5,-288 371.5,-288 371.5,-324"/>
<text text-anchor="middle" x="215" y="-302.3" font-family="Times,serif" font-size="14.00">cnf(id_96,plain,(~killed(charles,agatha))).</text>
</g>
<!-- cnf(id_55,plain,(hates(agatha,agatha))).&#45;&gt;cnf(id_96,plain,(~killed(charles,agatha))). -->
<g id="edge5" class="edge">
<title>cnf(id_55,plain,(hates(agatha,agatha))).&#45;&gt;cnf(id_96,plain,(~killed(charles,agatha))).</title>
<path fill="none" stroke="black" d="M504.04,-359.97C447.78,-349.66 375.94,-336.49 317.96,-325.87"/>
<polygon fill="black" stroke="black" points="318.51,-322.41 308.04,-324.05 317.25,-329.3 318.51,-322.41"/>
</g>
<!-- cnf(id_56,plain,(hates(agatha,charles))). -->
<g id="node6" class="node">
<title>cnf(id_56,plain,(hates(agatha,charles))).</title>
<polygon fill="none" stroke="black" points="1801.5,-540 1500.5,-540 1500.5,-504 1801.5,-504 1801.5,-540"/>
<text text-anchor="middle" x="1651" y="-518.3" font-family="Times,serif" font-size="14.00">cnf(id_56,plain,(hates(agatha,charles))).</text>
</g>
<!-- cnf(id_144,plain,(~hates(butler,agatha) | ~hates(butler,butler))). -->
<g id="node15" class="node">
<title>cnf(id_144,plain,(~hates(butler,agatha) | ~hates(butler,butler))).</title>
<polygon fill="none" stroke="black" points="2137.5,-468 1660.5,-468 1660.5,-432 2137.5,-432 2137.5,-468"/>
<text text-anchor="middle" x="1899" y="-446.3" font-family="Times,serif" font-size="14.00">cnf(id_144,plain,(~hates(butler,agatha) | ~hates(butler,butler))).</text>
</g>
<!-- cnf(id_56,plain,(hates(agatha,charles))).&#45;&gt;cnf(id_144,plain,(~hates(butler,agatha) | ~hates(butler,butler))). -->
<g id="edge6" class="edge">
<title>cnf(id_56,plain,(hates(agatha,charles))).&#45;&gt;cnf(id_144,plain,(~hates(butler,agatha) | ~hates(butler,butler))).</title>
<path fill="none" stroke="black" d="M1711.35,-503.97C1746.75,-493.97 1791.66,-481.3 1828.66,-470.85"/>
<polygon fill="black" stroke="black" points="1829.71,-474.2 1838.38,-468.11 1827.8,-467.46 1829.71,-474.2"/>
</g>
<!-- cnf(id_57,plain,(~killed(X0,X1) | hates(X0,X1))). -->
<g id="node7" class="node">
<title>cnf(id_57,plain,(~killed(X0,X1) | hates(X0,X1))).</title>
<polygon fill="none" stroke="black" points="980.5,-468 625.5,-468 625.5,-432 980.5,-432 980.5,-468"/>
<text text-anchor="middle" x="803" y="-446.3" font-family="Times,serif" font-size="14.00">cnf(id_57,plain,(~killed(X0,X1) | hates(X0,X1))).</text>
</g>
<!-- cnf(id_57,plain,(~killed(X0,X1) | hates(X0,X1))).&#45;&gt;cnf(id_91,plain,(~killed(charles,X0) | ~hates(agatha,X0))). -->
<g id="edge7" class="edge">
<title>cnf(id_57,plain,(~killed(X0,X1) | hates(X0,X1))).&#45;&gt;cnf(id_91,plain,(~killed(charles,X0) | ~hates(agatha,X0))).</title>
<path fill="none" stroke="black" d="M659.91,-431.97C571.53,-421.44 458.17,-407.95 368.01,-397.21"/>
<polygon fill="black" stroke="black" points="368.31,-393.73 357.97,-396.02 367.48,-400.68 368.31,-393.73"/>
</g>
<!-- cnf(id_168,plain,(~killed(butler,agatha) | richer(butler,agatha))). -->
<g id="node18" class="node">
<title>cnf(id_168,plain,(~killed(butler,agatha) | richer(butler,agatha))).</title>
<polygon fill="none" stroke="black" points="1265,-252 791,-252 791,-216 1265,-216 1265,-252"/>
<text text-anchor="middle" x="1028" y="-230.3" font-family="Times,serif" font-size="14.00">cnf(id_168,plain,(~killed(butler,agatha) | richer(butler,agatha))).</text>
</g>
<!-- cnf(id_57,plain,(~killed(X0,X1) | hates(X0,X1))).&#45;&gt;cnf(id_168,plain,(~killed(butler,agatha) | richer(butler,agatha))). -->
<g id="edge8" class="edge">
<title>cnf(id_57,plain,(~killed(X0,X1) | hates(X0,X1))).&#45;&gt;cnf(id_168,plain,(~killed(butler,agatha) | richer(butler,agatha))).</title>
<path fill="none" stroke="black" d="M828.44,-431.95C861.1,-409.4 918.61,-367.42 961,-324 980.16,-304.38 998.65,-279.19 1011.33,-260.62"/>
<polygon fill="black" stroke="black" points="1014.39,-262.34 1017.07,-252.09 1008.59,-258.43 1014.39,-262.34"/>
</g>
<!-- cnf(id_58,plain,(~hates(agatha,X0) | hates(butler,X0))). -->
<g id="node8" class="node">
<title>cnf(id_58,plain,(~hates(agatha,X0) | hates(butler,X0))).</title>
<polygon fill="none" stroke="black" points="2606,-612 2198,-612 2198,-576 2606,-576 2606,-612"/>
<text text-anchor="middle" x="2402" y="-590.3" font-family="Times,serif" font-size="14.00">cnf(id_58,plain,(~hates(agatha,X0) | hates(butler,X0))).</text>
</g>
<!-- cnf(id_58,plain,(~hates(agatha,X0) | hates(butler,X0))).&#45;&gt;cnf(id_124,plain,(~hates(agatha,charles) | ~hates(butler,agatha) | ~hates(butler,butler))). -->
<g id="edge9" class="edge">
<title>cnf(id_58,plain,(~hates(agatha,X0) | hates(butler,X0))).&#45;&gt;cnf(id_124,plain,(~hates(agatha,charles) | ~hates(butler,agatha) | ~hates(butler,butler))).</title>
<path fill="none" stroke="black" d="M2340.19,-575.97C2303.93,-565.97 2257.94,-553.3 2220.04,-542.85"/>
<polygon fill="black" stroke="black" points="2220.66,-539.39 2210.09,-540.11 2218.8,-546.14 2220.66,-539.39"/>
</g>
<!-- cnf(id_59,plain,(~lives(X0) | richer(X0,agatha) | hates(butler,X0))). -->
<g id="node9" class="node">
<title>cnf(id_59,plain,(~lives(X0) | richer(X0,agatha) | hates(butler,X0))).</title>
<polygon fill="none" stroke="black" points="1642,-468 1154,-468 1154,-432 1642,-432 1642,-468"/>
<text text-anchor="middle" x="1398" y="-446.3" font-family="Times,serif" font-size="14.00">cnf(id_59,plain,(~lives(X0) | richer(X0,agatha) | hates(butler,X0))).</text>
</g>
<!-- cnf(id_153,plain,(~hates(butler,agatha) | ~lives(butler) | richer(butler,agatha))). -->
<g id="node16" class="node">
<title>cnf(id_153,plain,(~hates(butler,agatha) | ~lives(butler) | richer(butler,agatha))).</title>
<polygon fill="none" stroke="black" points="1907.5,-396 1320.5,-396 1320.5,-360 1907.5,-360 1907.5,-396"/>
<text text-anchor="middle" x="1614" y="-374.3" font-family="Times,serif" font-size="14.00">cnf(id_153,plain,(~hates(butler,agatha) | ~lives(butler) | richer(butler,agatha))).</text>
</g>
<!-- cnf(id_59,plain,(~lives(X0) | richer(X0,agatha) | hates(butler,X0))).&#45;&gt;cnf(id_153,plain,(~hates(butler,agatha) | ~lives(butler) | richer(butler,agatha))). -->
<g id="edge10" class="edge">
<title>cnf(id_59,plain,(~lives(X0) | richer(X0,agatha) | hates(butler,X0))).&#45;&gt;cnf(id_153,plain,(~hates(butler,agatha) | ~lives(butler) | richer(butler,agatha))).</title>
<path fill="none" stroke="black" d="M1450.56,-431.97C1481.01,-422.1 1519.51,-409.62 1551.5,-399.25"/>
<polygon fill="black" stroke="black" points="1552.77,-402.52 1561.2,-396.11 1550.61,-395.86 1552.77,-402.52"/>
</g>
<!-- cnf(id_60,negated_conjecture,(killed(butler,agatha) | killed(charles,agatha))). -->
<g id="node10" class="node">
<title>cnf(id_60,negated_conjecture,(killed(butler,agatha) | killed(charles,agatha))).</title>
<polygon fill="none" stroke="black" points="952.5,-324 389.5,-324 389.5,-288 952.5,-288 952.5,-324"/>
<text text-anchor="middle" x="671" y="-302.3" font-family="Times,serif" font-size="14.00">cnf(id_60,negated_conjecture,(killed(butler,agatha) | killed(charles,agatha))).</text>
</g>
<!-- cnf(id_101,plain,(killed(butler,agatha))). -->
<g id="node13" class="node">
<title>cnf(id_101,plain,(killed(butler,agatha))).</title>
<polygon fill="none" stroke="black" points="773,-252 473,-252 473,-216 773,-216 773,-252"/>
<text text-anchor="middle" x="623" y="-230.3" font-family="Times,serif" font-size="14.00">cnf(id_101,plain,(killed(butler,agatha))).</text>
</g>
<!-- cnf(id_60,negated_conjecture,(killed(butler,agatha) | killed(charles,agatha))).&#45;&gt;cnf(id_101,plain,(killed(butler,agatha))). -->
<g id="edge11" class="edge">
<title>cnf(id_60,negated_conjecture,(killed(butler,agatha) | killed(charles,agatha))).&#45;&gt;cnf(id_101,plain,(killed(butler,agatha))).</title>
<path fill="none" stroke="black" d="M659.13,-287.7C653.5,-279.47 646.65,-269.48 640.43,-260.42"/>
<polygon fill="black" stroke="black" points="643.27,-258.37 634.73,-252.1 637.5,-262.33 643.27,-258.37"/>
</g>
<!-- cnf(id_91,plain,(~killed(charles,X0) | ~hates(agatha,X0))).&#45;&gt;cnf(id_96,plain,(~killed(charles,agatha))). -->
<g id="edge12" class="edge">
<title>cnf(id_91,plain,(~killed(charles,X0) | ~hates(agatha,X0))).&#45;&gt;cnf(id_96,plain,(~killed(charles,agatha))).</title>
<path fill="none" stroke="black" d="M215,-359.7C215,-351.98 215,-342.71 215,-334.11"/>
<polygon fill="black" stroke="black" points="218.5,-334.1 215,-324.1 211.5,-334.1 218.5,-334.1"/>
</g>
<!-- cnf(id_96,plain,(~killed(charles,agatha))).&#45;&gt;cnf(id_101,plain,(killed(butler,agatha))). -->
<g id="edge13" class="edge">
<title>cnf(id_96,plain,(~killed(charles,agatha))).&#45;&gt;cnf(id_101,plain,(killed(butler,agatha))).</title>
<path fill="none" stroke="black" d="M314.29,-287.97C374.5,-277.63 451.42,-264.44 513.41,-253.8"/>
<polygon fill="black" stroke="black" points="514.36,-257.19 523.62,-252.05 513.17,-250.29 514.36,-257.19"/>
</g>
<!-- cnf(id_173,plain,(richer(butler,agatha))). -->
<g id="node19" class="node">
<title>cnf(id_173,plain,(richer(butler,agatha))).</title>
<polygon fill="none" stroke="black" points="957,-180 653,-180 653,-144 957,-144 957,-180"/>
<text text-anchor="middle" x="805" y="-158.3" font-family="Times,serif" font-size="14.00">cnf(id_173,plain,(richer(butler,agatha))).</text>
</g>
<!-- cnf(id_101,plain,(killed(butler,agatha))).&#45;&gt;cnf(id_173,plain,(richer(butler,agatha))). -->
<g id="edge14" class="edge">
<title>cnf(id_101,plain,(killed(butler,agatha))).&#45;&gt;cnf(id_173,plain,(richer(butler,agatha))).</title>
<path fill="none" stroke="black" d="M667.52,-215.88C692.73,-206.18 724.45,-193.98 751.07,-183.74"/>
<polygon fill="black" stroke="black" points="752.55,-186.92 760.62,-180.07 750.03,-180.39 752.55,-186.92"/>
</g>
<!-- cnf(id_183,plain,($false)). -->
<g id="node21" class="node">
<title>cnf(id_183,plain,($false)).</title>
<polygon fill="none" stroke="black" points="814,-36 616,-36 616,0 814,0 814,-36"/>
<text text-anchor="middle" x="715" y="-14.3" font-family="Times,serif" font-size="14.00">cnf(id_183,plain,($false)).</text>
</g>
<!-- cnf(id_101,plain,(killed(butler,agatha))).&#45;&gt;cnf(id_183,plain,($false)). -->
<g id="edge15" class="edge">
<title>cnf(id_101,plain,(killed(butler,agatha))).&#45;&gt;cnf(id_183,plain,($false)).</title>
<path fill="none" stroke="black" d="M620.75,-215.61C617.59,-184.47 614.96,-118.14 642,-72 649.07,-59.94 660.08,-49.85 671.43,-41.82"/>
<polygon fill="black" stroke="black" points="673.7,-44.51 680.11,-36.08 669.84,-38.67 673.7,-44.51"/>
</g>
<!-- cnf(id_124,plain,(~hates(agatha,charles) | ~hates(butler,agatha) | ~hates(butler,butler))).&#45;&gt;cnf(id_144,plain,(~hates(butler,agatha) | ~hates(butler,butler))). -->
<g id="edge16" class="edge">
<title>cnf(id_124,plain,(~hates(agatha,charles) | ~hates(butler,agatha) | ~hates(butler,butler))).&#45;&gt;cnf(id_144,plain,(~hates(butler,agatha) | ~hates(butler,butler))).</title>
<path fill="none" stroke="black" d="M2087.41,-503.97C2051.86,-493.97 2006.78,-481.3 1969.62,-470.85"/>
<polygon fill="black" stroke="black" points="1970.44,-467.45 1959.87,-468.11 1968.55,-474.19 1970.44,-467.45"/>
</g>
<!-- cnf(id_144,plain,(~hates(butler,agatha) | ~hates(butler,butler))).&#45;&gt;cnf(id_153,plain,(~hates(butler,agatha) | ~lives(butler) | richer(butler,agatha))). -->
<g id="edge17" class="edge">
<title>cnf(id_144,plain,(~hates(butler,agatha) | ~hates(butler,butler))).&#45;&gt;cnf(id_153,plain,(~hates(butler,agatha) | ~lives(butler) | richer(butler,agatha))).</title>
<path fill="none" stroke="black" d="M1829.65,-431.97C1788.53,-421.87 1736.26,-409.03 1693.48,-398.52"/>
<polygon fill="black" stroke="black" points="1694.21,-395.1 1683.67,-396.11 1692.54,-401.9 1694.21,-395.1"/>
</g>
<!-- cnf(id_153,plain,(~hates(butler,agatha) | ~lives(butler) | richer(butler,agatha))).&#45;&gt;cnf(id_161,plain,(~hates(butler,agatha) | richer(butler,agatha))). -->
<g id="edge18" class="edge">
<title>cnf(id_153,plain,(~hates(butler,agatha) | ~lives(butler) | richer(butler,agatha))).&#45;&gt;cnf(id_161,plain,(~hates(butler,agatha) | richer(butler,agatha))).</title>
<path fill="none" stroke="black" d="M1524.45,-359.97C1470.36,-349.68 1401.33,-336.55 1345.54,-325.93"/>
<polygon fill="black" stroke="black" points="1346.11,-322.48 1335.63,-324.05 1344.8,-329.36 1346.11,-322.48"/>
</g>
<!-- cnf(id_161,plain,(~hates(butler,agatha) | richer(butler,agatha))).&#45;&gt;cnf(id_168,plain,(~killed(butler,agatha) | richer(butler,agatha))). -->
<g id="edge19" class="edge">
<title>cnf(id_161,plain,(~hates(butler,agatha) | richer(butler,agatha))).&#45;&gt;cnf(id_168,plain,(~killed(butler,agatha) | richer(butler,agatha))).</title>
<path fill="none" stroke="black" d="M1192.95,-287.97C1162.23,-278.1 1123.36,-265.62 1091.08,-255.25"/>
<polygon fill="black" stroke="black" points="1091.88,-251.84 1081.29,-252.11 1089.74,-258.5 1091.88,-251.84"/>
</g>
<!-- cnf(id_168,plain,(~killed(butler,agatha) | richer(butler,agatha))).&#45;&gt;cnf(id_173,plain,(richer(butler,agatha))). -->
<g id="edge20" class="edge">
<title>cnf(id_168,plain,(~killed(butler,agatha) | richer(butler,agatha))).&#45;&gt;cnf(id_173,plain,(richer(butler,agatha))).</title>
<path fill="none" stroke="black" d="M973.73,-215.97C942.17,-206.06 902.21,-193.51 869.1,-183.12"/>
<polygon fill="black" stroke="black" points="870.1,-179.77 859.51,-180.11 868,-186.45 870.1,-179.77"/>
</g>
<!-- cnf(id_173,plain,(richer(butler,agatha))).&#45;&gt;cnf(id_181,plain,(~killed(butler,agatha))). -->
<g id="edge21" class="edge">
<title>cnf(id_173,plain,(richer(butler,agatha))).&#45;&gt;cnf(id_181,plain,(~killed(butler,agatha))).</title>
<path fill="none" stroke="black" d="M805.49,-143.7C805.71,-135.98 805.98,-126.71 806.23,-118.11"/>
<polygon fill="black" stroke="black" points="809.72,-118.2 806.51,-108.1 802.73,-118 809.72,-118.2"/>
</g>
<!-- cnf(id_181,plain,(~killed(butler,agatha))).&#45;&gt;cnf(id_183,plain,($false)). -->
<g id="edge22" class="edge">
<title>cnf(id_181,plain,(~killed(butler,agatha))).&#45;&gt;cnf(id_183,plain,($false)).</title>
<path fill="none" stroke="black" d="M784.26,-71.7C772.56,-62.8 758.14,-51.82 745.49,-42.2"/>
<polygon fill="black" stroke="black" points="747.56,-39.37 737.48,-36.1 743.32,-44.94 747.56,-39.37"/>
</g>
</g>
</svg>
